<svg id="Artwork" xmlns="http://www.w3.org/2000/svg" viewBox="0 0 2834 500"><defs><style>.cls-1{fill:#c046ff;}.cls-2{fill:#fff;}</style></defs><polygon class="cls-1" points="500.11 353.69 323.23 176.85 677 176.85 677 353.69 500.11 353.69"/><path class="cls-2" d="M0,0H146.34L500.11,353.69V500H353.77L176.89,323.15V500H0ZM322.79,176.85H499.68V0H322.79Zm594.56,26.78V415.27H853.89v-300h65.52l168.13,203.65,2.88,5V115.27h63.47v300h-63.05L921.06,209.52Zm466.06,95.72H1213V231.19h170.41Zm267.52,50.28H1497l-29,65.64h-71.17l141.1-300h69.93l143.18,300h-69.94Zm-78.21-170.4-51.31,115.28h104.28Zm220.68,236v-300h153.11q70.34,0,104.69,17.46t34.34,60.8v2.1q0,28.2-13.65,43.34t-42.21,21.46q32.28,5.9,47.58,21t15.32,45.86v1.26q0,47.55-36.42,67.11t-106.34,19.57ZM1858,168.71v66.48h94.35q30.62,0,49.24-5.89t18.62-26.51v-1.68q0-21-16.14-26.72t-53.79-5.68Zm0,119.07v71.11h83.59q17,0,29.79-.84a190.36,190.36,0,0,0,21.94-2.53q17.77-2.94,24.62-10.73t6.82-20.83V322.7a39.21,39.21,0,0,0-1.86-12.62,27.41,27.41,0,0,0-5.17-9.26q-7.46-7.57-24.62-10.3t-47.38-2.74Zm289.14,127.49v-300h67V351.73h185v63.54Zm579.91,0H2452.65v-300h265.66v56.8H2516.37v64h170.9v57.22h-170.9v63.11H2727Z"/><g id="TM"><path class="cls-2" d="M2765.51,154.53V121.86H2752v-6.6h34.09v6.6h-13.46v32.67Zm28,0V115.26h5.87l14.35,23.93,14.34-23.93H2834l.05,39.27h-6.81v-25.6l-11.26,19.16h-4.39l-11.21-19.16v25.6Z"/></g></svg>